<svg xmlns="http://www.w3.org/2000/svg" width="22" height="21" viewBox="0 0 22 21">
  <path id="fill-2" d="M7.6,14.13l7.488-1.65s1.048-.332,1.475.273a1.754,1.754,0,0,1,.11,1.381l-2.533,6.432H3.953L.02,4.418s-.177-.952.526-1.19a1.047,1.047,0,0,1,1.334.68L7.043,13.943A.433.433,0,0,0,7.6,14.13Zm-1.55-9.2A1.717,1.717,0,0,1,4.3,3.241a1.746,1.746,0,0,1,3.49,0,1.718,1.718,0,0,1-1.745,1.69ZM6.24,8.286a1.667,1.667,0,0,1,.813-2.257A1.778,1.778,0,0,1,9.32,6.7l1.41,2.718s.338.55.805.45l2.234-.392s1.017-.216,1.454.387a.59.59,0,0,1-.121.921l-6.36,1.4a.531.531,0,0,1-.567-.316L6.24,8.286ZM18.125,15.06l3.645,4.882s.463.6.075.883a1.207,1.207,0,0,1-1.523-.236L17.15,17.6l.975-2.544ZM14.224,0h2.111a2,2,0,0,1,2,2V4.855a2,2,0,0,1-2,2H14.224a2,2,0,0,1-2-2V2a2,2,0,0,1,2-2Z" transform="translate(0)" fill="#647280" fill-rule="evenodd"/>
</svg>
