<svg id="_1" data-name="1" xmlns="http://www.w3.org/2000/svg" width="18.38" height="18.38" viewBox="0 0 18.38 18.38">
  <g id="Hand_Baggage">
    <rect id="Rectangle" width="4" height="9" transform="translate(5.19 9.19)" fill="#647280"/>
    <path id="Path" d="M0,16.5V21.19H3.829V12A4.4,4.4,0,0,0,0,16.5Z" transform="translate(0 -2.81)" fill="#647280"/>
    <path id="Path-2" data-name="Path" d="M19.55,3.007H14.918a4.4,4.4,0,0,0-2.011.476V1.4H17v1.6h1.383V1.4h0a1.367,1.367,0,0,0-.395-.985A1.411,1.411,0,0,0,17,0h-4.1a1.411,1.411,0,0,0-.988.418,1.367,1.367,0,0,0-.395.985h0V4.577a4.577,4.577,0,0,0-.848,1.6H6.391A1.419,1.419,0,0,0,5.4,6.6a1.376,1.376,0,0,0-.4.985H5v1.6H6.391V7.567h4.047v1.62H11.83v9.187a1.991,1.991,0,0,0,.314,0h1.849a5.676,5.676,0,0,0,3.97-1.686,5.5,5.5,0,0,0,1.587-3.96Z" transform="translate(-1.171)" fill="#647280"/>
  </g>
</svg>
