<svg xmlns="http://www.w3.org/2000/svg" width="48" height="48" viewBox="0 0 48 48">
  <g id="Group_85" data-name="Group 85" transform="translate(-45 -638)">
    <circle id="Ellipse_9" data-name="Ellipse 9" cx="24" cy="24" r="24" transform="translate(45 638)" fill="#dae0e8"/>
    <g id="ek-hizmet" transform="translate(48.889 642)">
      <path id="Path_119" data-name="Path 119" d="M18.461,14.764h2.068A2.652,2.652,0,0,1,23.265,17.5v5.047h.061c.061-.122.122-.182.122-.3.851-1.764,1.7-3.588,2.554-5.351a1.6,1.6,0,0,1,2.432-.851c3.1,1.459,6.142,2.98,9.243,4.439.547.243.608.486.365,1.034-2.189,4.561-4.378,9.061-6.568,13.622-.243.547-.486.608-1.034.365-2.372-1.155-4.683-2.25-7.054-3.405-.061-.061-.182-.061-.3-.122a2.549,2.549,0,0,1-1.7,1.885,1.626,1.626,0,0,1-.547,2.007,1.47,1.47,0,0,1-1.7.122A1.571,1.571,0,0,1,18.4,34.1H13.961a1.615,1.615,0,0,1-.851,1.946,1.462,1.462,0,0,1-1.7-.182,1.658,1.658,0,0,1-.486-1.946c-.122-.061-.182-.122-.3-.182A2.954,2.954,0,0,1,9.4,31.366V17.379a2.6,2.6,0,0,1,2.615-2.615H14.2V6.189A2.129,2.129,0,0,1,16.333,4a2.094,2.094,0,0,1,2.128,2.189v8.575Zm8.027,3.892a.212.212,0,0,0-.061.122c-1.642,3.466-3.345,6.872-4.987,10.338-.243.426-.122.669.365.912,1.946.912,3.892,1.885,5.838,2.8,1.034.486,2.068.973,3.162,1.52,1.764-3.71,3.527-7.358,5.351-11.068C32.874,21.757,29.711,20.176,26.488,18.656Zm-9.061-3.892V6.311a1.093,1.093,0,0,0-.669-1.095A1.069,1.069,0,0,0,15.3,6.311v8.453Zm-3.77,17.088V19.568H12.623V31.852Zm3.223,0V19.568H15.846V31.852Zm2.189-12.284V31.852H20.1V19.568Zm-5.96,14.96a.545.545,0,0,0-.547-.547.536.536,0,0,0-.547.486.545.545,0,0,0,.547.547A.465.465,0,0,0,13.11,34.528Zm6.993.547a.547.547,0,1,0-.547-.547A.545.545,0,0,0,20.1,35.075Z" transform="translate(-2.072)"/>
      <path id="Path_120" data-name="Path 120" d="M41.747,7.211c.791.547,1.581,1.034,2.311,1.52.061.061.182,0,.3-.061.365-.243.73-.486,1.034-.73A.569.569,0,0,1,46.186,8l.973.973c.3.3.243.547,0,.851l-2.007,2.007a1.566,1.566,0,0,1-1.946.243c-2.919-1.764-5.9-3.588-8.818-5.412a.475.475,0,0,1-.182-.791,3.051,3.051,0,0,1,2.007-1.216,2.9,2.9,0,0,1,1.764.365c.3.243.608.547.912.547s.669-.3.973-.426l1.824-.912a.643.643,0,0,1,.851.122c.791.791.791.791.122,1.642C42.355,6.36,42.051,6.786,41.747,7.211Z" transform="translate(-11.736 -0.049)"/>
      <path id="Path_121" data-name="Path 121" d="M26.1,16.825V15.791a1.949,1.949,0,0,0,1.216-.608,3.724,3.724,0,0,1,4.987,0c.122.061.182.182.243.243a.651.651,0,0,0,.851.061,1.676,1.676,0,0,1,2.554.182,12.54,12.54,0,0,0,3.466,2.737,12.975,12.975,0,0,0,2.98.912h.486c-.243-.669-.486-1.216-.791-1.885a6.647,6.647,0,0,0,.912-.486,14.844,14.844,0,0,1,1.642,6.081c-.3,0-.608.061-.912.061-.061,0-.122-.182-.182-.243l-.365-2.189c0-.182-.122-.243-.3-.3a10.907,10.907,0,0,1-7.3-3.466,3.187,3.187,0,0,0-.669-.608.587.587,0,0,0-.851,0,1.65,1.65,0,0,1-2.493-.122,2.606,2.606,0,0,0-3.71,0A2.592,2.592,0,0,1,26.1,16.825Z" transform="translate(-8.617 -4.007)"/>
      <path id="Path_122" data-name="Path 122" d="M10.794,9.1c.182.3.426.547.608.851a14.7,14.7,0,0,0-5.716,8.514A14.633,14.633,0,0,0,6.719,28.742c-.3.182-.608.3-.912.486A15.963,15.963,0,0,1,10.794,9.1Z" transform="translate(0 -1.999)"/>
      <path id="Path_123" data-name="Path 123" d="M35.574,54.1a7.992,7.992,0,0,0,.3.912A15.437,15.437,0,0,1,31.5,55.8V54.83C32.838,54.586,34.176,54.343,35.574,54.1Z" transform="translate(-10.733 -19.633)"/>
      <path id="Path_124" data-name="Path 124" d="M26.082,5.326c-.061-.3-.122-.608-.182-.973a15.468,15.468,0,0,1,4.439-.122c-.061.365-.061.669-.122.973C28.88,5.2,27.481,5.265,26.082,5.326Z" transform="translate(-8.538 -0.049)"/>
      <path id="Path_125" data-name="Path 125" d="M39.57,32.9a3.7,3.7,0,0,1,3.71,3.77,3.74,3.74,0,1,1-3.71-3.77Zm1.216,4.926c-.486.547-.912.973-1.338,1.459a2.735,2.735,0,0,0,2.25-1.034C41.334,38.069,41.03,37.947,40.787,37.826Zm-3.284.547a17.825,17.825,0,0,0,.3-1.764c0-.061-.061-.243-.122-.243-.243-.122-.486-.243-.791-.365A2.747,2.747,0,0,0,37.5,38.373Zm4.622-1.095a2.471,2.471,0,0,0-.547-2.372c-.122.608-.182,1.277-.3,1.946C41.516,36.974,41.82,37.1,42.124,37.278Zm-3.831-1.824c.486-.486.912-.973,1.338-1.459a2.412,2.412,0,0,0-2.189,1.034C37.746,35.15,38.05,35.332,38.293,35.454Zm.365,2.919c.061,0,.061.061.122.061.3-.365.669-.669,1.034-1.095a6.757,6.757,0,0,0-.973-.426Zm1.581-2.007q.091-.821.182-1.459c-.061,0-.061-.061-.122-.061-.3.365-.669.669-1.034,1.095A4.707,4.707,0,0,1,40.239,36.366Z" transform="translate(-12.418 -11.325)"/>
      <path id="Path_126" data-name="Path 126" d="M38.2,48.284c-1.642-.791-3.223-1.52-4.8-2.311.182-.3.3-.608.486-.973,1.581.791,3.223,1.52,4.8,2.311C38.508,47.676,38.387,47.98,38.2,48.284Z" transform="translate(-11.477 -16.067)"/>
    </g>
  </g>
</svg>
