<svg xmlns="http://www.w3.org/2000/svg" width="48" height="48" viewBox="0 0 48 48">
  <g id="Group_87" data-name="Group 87" transform="translate(-724 -638)">
    <circle id="Ellipse_11" data-name="Ellipse 11" cx="24" cy="24" r="24" transform="translate(724 638)" fill="#dae0e8"/>
    <g id="kampanya" transform="translate(728.626 642.5)">
      <path id="Path_133" data-name="Path 133" d="M4.4,32.388a.776.776,0,0,1,.692-.288h1.5c.115,0,.231.058.346.058.231.058.288.173.288.4v2.306h.922V32.619c0-.4,0-.519.577-.519H27.345c.4,0,.577.173.577.576V45.59a.636.636,0,0,1-.288.577H8.493A.585.585,0,0,1,8.2,45.59V43.4H7.283v2.075c0,.346-.058.576-.346.692H4.458C4.4,41.612,4.4,37,4.4,32.388Zm9.916,3.171a2.393,2.393,0,0,0-2.018-.634,1.4,1.4,0,0,0-1.268,1.441c0,.115.058.288.058.4h-.461a.459.459,0,0,0-.519.519v5.534a.459.459,0,0,0,.519.519h7.437a.459.459,0,0,0,.519-.519V37.289a.459.459,0,0,0-.519-.519H17.6a1.4,1.4,0,0,0-1.211-1.845A2.243,2.243,0,0,0,14.316,35.559Zm10.435,1.96c-1.557,1.5-3.055,3.055-4.612,4.612l.577.577L25.327,38.1A5.436,5.436,0,0,1,24.751,37.519Zm-3.863-.692a1.5,1.5,0,0,0-1.441,1.384,1.416,1.416,0,0,0,1.384,1.441,1.5,1.5,0,0,0,1.441-1.384A1.416,1.416,0,0,0,20.888,36.827Zm3.747,3.747a1.413,1.413,0,1,0,1.384,1.441A1.4,1.4,0,0,0,24.635,40.575Zm-1.441-4.727h2.767v-.865H23.194Zm-1.845,0h.922v-.922h-.922ZM7.225,35.9v.922h.922V35.9Zm.922,2.767V37.75H7.225v.922Zm0,1.9v-.922H7.225v.922Zm0,1.845V41.5H7.283v.922Z" transform="translate(0 -11.667)"/>
      <path id="Path_134" data-name="Path 134" d="M40.761,15.475a.776.776,0,0,1-.692.288h-6.8v-5.65H35.63A2.374,2.374,0,0,0,37.994,7.75a2.376,2.376,0,0,0-2.421-2.306A5.119,5.119,0,0,0,30.5,10v.173h1.845v5.592h-4.67V10.171h1.845a4.9,4.9,0,0,0-2.306-3.8,4.192,4.192,0,0,0-3.286-.807,2.294,2.294,0,0,0-1.9,2.479,2.367,2.367,0,0,0,2.306,2.133h2.364v5.65h-6.86c-.519,0-.634-.115-.634-.692V10.806c0-.461.173-.634.634-.634h2.191A.212.212,0,0,1,21.967,10a3.351,3.351,0,0,1-.461-3.747,3.424,3.424,0,0,1,3.459-1.672,6.068,6.068,0,0,1,5.016,3.574c0,.058.058.058.058.115.058-.115.115-.173.173-.288a5.982,5.982,0,0,1,5.361-3.4,3.025,3.025,0,0,1,3.055,1.9,3.268,3.268,0,0,1-.519,3.574.443.443,0,0,0-.115.173h2.191a.776.776,0,0,1,.692.288C40.761,12.132,40.761,13.8,40.761,15.475Z" transform="translate(-6.268)"/>
      <path id="Path_135" data-name="Path 135" d="M44.725,43.414v-14.3c0-.577-.115-.692-.749-.692H41.9V25.6h5.938c.519,0,.634.173.634.634V42.78c0,.288-.058.519-.288.634Z" transform="translate(-15.881 -8.914)"/>
      <path id="Path_136" data-name="Path 136" d="M28.872,28.467H22.3V26.1c0-.288.231-.4.519-.4h6.053Z" transform="translate(-7.581 -8.956)"/>
      <path id="Path_137" data-name="Path 137" d="M38.167,28.467H35.4V25.7h2.767Z" transform="translate(-13.128 -8.956)"/>
      <path id="Path_138" data-name="Path 138" d="M18.667,45.2v2.767H15.9V45.2Z" transform="translate(-4.87 -17.215)"/>
      <path id="Path_139" data-name="Path 139" d="M25.167,45.2v2.767H22.4V45.2Z" transform="translate(-7.623 -17.215)"/>
      <path id="Path_140" data-name="Path 140" d="M18.667,42.822H15.9V41.9h2.767Z" transform="translate(-4.87 -15.817)"/>
      <path id="Path_141" data-name="Path 141" d="M25.167,41.9v.922H22.4V41.9Z" transform="translate(-7.623 -15.817)"/>
      <path id="Path_142" data-name="Path 142" d="M19.345,39.6H17.9c-.231,0-.346-.173-.4-.4,0-.231.058-.4.288-.461a1.28,1.28,0,0,1,1.268.173,2.381,2.381,0,0,1,.4.634C19.4,39.484,19.345,39.542,19.345,39.6Z" transform="translate(-5.548 -14.439)"/>
      <path id="Path_143" data-name="Path 143" d="M22.4,39.622a.783.783,0,0,1,.634-.865A4.363,4.363,0,0,1,23.9,38.7c.231,0,.346.231.346.461a.489.489,0,0,1-.4.461Z" transform="translate(-7.623 -14.462)"/>
      <path id="Path_144" data-name="Path 144" d="M32.561,41.9a.461.461,0,1,1-.461.461A.5.5,0,0,1,32.561,41.9Z" transform="translate(-11.731 -15.817)"/>
      <path id="Path_145" data-name="Path 145" d="M39.622,48.861a.461.461,0,1,1-.461-.461A.5.5,0,0,1,39.622,48.861Z" transform="translate(-14.526 -18.57)"/>
    </g>
  </g>
</svg>
