<svg xmlns="http://www.w3.org/2000/svg" width="48" height="48" viewBox="0 0 48 48">
  <g id="Group_86" data-name="Group 86" transform="translate(-385 -641)">
    <circle id="Ellipse_10" data-name="Ellipse 10" cx="24" cy="24" r="24" transform="translate(385 641)" fill="#dae0e8"/>
    <g id="seyahat-kisitlamalari" transform="translate(386.623 640.649)">
      <path id="Path_127" data-name="Path 127" d="M20.313,37.168c.208.556.417,1.042.625,1.667a14.738,14.738,0,0,1-7.015-2.292,2.9,2.9,0,0,0,.417-.139c1.945-.695,3.82-1.389,5.765-2.014.139-.069.417-.208.417-.347a1.427,1.427,0,0,0,0-.764c-.139-.278-.486-.278-.764-.208-.833.347-1.667.695-2.57.972-1.459.486-2.848.9-4.306,1.32a3.008,3.008,0,0,1-.347.069c.486.347.833.625,1.32.972-.625.139-1.181.278-1.667.347a15.689,15.689,0,0,1-5.973.208,4.451,4.451,0,0,1-2.987-1.736A4.259,4.259,0,0,1,2.6,31.264a14.236,14.236,0,0,1,2.917-5.07l1.667-1.875a.5.5,0,0,1,.764-.069c1.111.972,2.223,1.875,3.334,2.848.208.139.208.278.139.556-.347.764-.625,1.6-.972,2.362a.86.86,0,0,0,.208.972,19.684,19.684,0,0,0,1.736,1.667,1.456,1.456,0,0,0,.764.278,2.814,2.814,0,0,0,.764,0,1.13,1.13,0,0,1,1.181.417.551.551,0,0,0,.9,0c.278-.278.208-.625,0-.972a1.73,1.73,0,0,0-1.806-.764,1.452,1.452,0,0,1-1.6-.625,2.114,2.114,0,0,0-.556-.556c-.208-.139-.208-.278-.139-.556.347-.764.625-1.6.972-2.362.208-.486.139-.695-.278-1.042-1.389-1.181-2.709-2.292-4.1-3.473a.9.9,0,0,0-1.32-.139q.1-.938.208-1.667a14.5,14.5,0,0,1,8.613-10.7,1.03,1.03,0,0,1,.9,0c.556.347,1.111.625,1.667.972a.461.461,0,0,1,.278.347c.139.695.278,1.459.486,2.223-1.042.556-2.084,1.042-3.126,1.528-.486.278-.972.486-1.459.764a.755.755,0,0,0-.486.695c-.139.764-.347,1.528-.486,2.292-.069.208-.139.278-.347.278H11.214c-.556,0-.695.139-.9.625-.208.556-.347,1.042-.556,1.6a.758.758,0,0,0,.208.9c.625.556,1.181,1.181,1.806,1.736a1.034,1.034,0,0,0,.625.278l4.584,1.042a.255.255,0,0,1,.208.069c-.278.556-.556,1.111-.833,1.6a.84.84,0,0,0,.069,1.042c.347.486.695,1.042,1.042,1.6a.942.942,0,0,0,.9.486H19.41a.656.656,0,0,0,.695-.695.6.6,0,0,0-.695-.625,1.31,1.31,0,0,1-1.459-.764.849.849,0,0,1-.069-1.111c.278-.486.486-.972.764-1.459.347-.625.139-.972-.556-1.111-1.667-.347-3.264-.764-4.931-1.111a1.659,1.659,0,0,1-.9-.486,11.067,11.067,0,0,0-.9-.9.531.531,0,0,1-.139-.625c.278-.764.278-.764,1.042-.764h1.806c.556,0,.764-.139.833-.695.139-.764.347-1.528.486-2.292A.8.8,0,0,1,15.8,17.3c1.459-.695,2.848-1.389,4.306-2.153.556-.278.625-.417.556-1.111-.208-.9-.417-1.875-.556-2.778a.825.825,0,0,0-.556-.695c-.417-.208-.833-.486-1.32-.695a14.442,14.442,0,0,1,6.529-.278c-.278.625-.486,1.25-.764,1.875a.742.742,0,0,0,.486,1.111,1.288,1.288,0,0,0,.486.139C25.8,13,25.8,13,25.8,13.9a1.471,1.471,0,0,1-.208.486c-.833.695-1.736,1.389-2.57,2.084a.8.8,0,0,0-.347.972c.069.278.069.625.139.972.069.417.347.695.695.625a.585.585,0,0,0,.556-.764c-.278-.764.139-1.181.695-1.6.695-.486,1.32-1.042,2.014-1.6a.814.814,0,0,0,.347-.764V12.65a.623.623,0,0,0-.486-.695c-.417-.139-.764-.278-1.181-.417.208-.556.417-1.042.625-1.6.208.069.417.069.556.139.972.417,1.875.833,2.778,1.32a.894.894,0,0,0,.833.069,18.653,18.653,0,0,1,5.834-.695,9.391,9.391,0,0,1,2.014.347,4.192,4.192,0,0,1,3.126,5.487,12.549,12.549,0,0,1-2.5,4.515c-.625.764-1.25,1.459-2.014,2.292-.069-.625-.139-1.111-.208-1.667a.959.959,0,0,0-.278.208,38.12,38.12,0,0,1-5,4.445c-.417.347-.486.764-.139,1.111.278.208.556.208.972-.069,1.389-1.181,2.848-2.431,4.237-3.681.069-.069.139-.278.278-.347a10.331,10.331,0,0,1-.278,3.89c-1.6,6.112-5.487,9.932-11.669,11.321-.695.139-1.389.139-2.014.278a.381.381,0,0,1-.417-.278,23.992,23.992,0,0,0-.972-2.362q-.313-.833-1.042-.417a3.722,3.722,0,0,1-2.292.486h-.625c-.347.069-.625.347-.556.625a.567.567,0,0,0,.556.625C18.368,37.515,19.41,37.793,20.313,37.168Zm7.432-14.447h.486c.556,0,.764-.208.764-.764V20.22a.623.623,0,0,0-.695-.695H23.23a.685.685,0,0,0-.695.625v1.875c0,.417.278.625.695.695h.556v.695a3.289,3.289,0,0,0-2.57,3.126V34.32a1.9,1.9,0,0,0,1.945,1.945H28.3a1.9,1.9,0,0,0,1.945-1.945V26.541A3.14,3.14,0,0,0,28.3,23.624l-.625-.208A2.141,2.141,0,0,0,27.744,22.721ZM7.255,26.193c-.417.486-.764.9-1.111,1.32A11.638,11.638,0,0,0,3.782,31.75a3.016,3.016,0,0,0,2.292,3.959,12.349,12.349,0,0,0,4.515.139c.625-.069,1.25-.208,1.945-.347A15.251,15.251,0,0,1,7.255,26.193Zm29.31-4.584c.417-.486.695-.833,1.042-1.25a11.638,11.638,0,0,0,2.362-4.237,3.016,3.016,0,0,0-2.292-3.959,11.608,11.608,0,0,0-4.376-.139c-.695.069-1.389.208-2.153.347A15.138,15.138,0,0,1,36.565,21.609Zm-3.542,8.751h0a4.921,4.921,0,0,1-.069-.972c0-.486-.208-.833-.625-.833s-.625.278-.625.764v2.917c0,.347.069.625.417.764s.625-.069.833-.347c.556-.764,1.181-1.528,1.736-2.292a1.4,1.4,0,0,0,.278-.556l.625-2.917a.678.678,0,0,0-.486-.833.646.646,0,0,0-.764.625c-.139.833-.347,1.6-.486,2.431A7.83,7.83,0,0,1,33.023,30.361Z"/>
      <path id="Path_128" data-name="Path 128" d="M37.89,40.27H31.5V35.2h6.39Zm-3.82-1.875c.069.486-.139,1.181.625,1.25.833,0,.625-.764.695-1.25h.486c.486,0,.764-.278.764-.625,0-.417-.278-.625-.764-.625H35.39c-.069-.972-.208-1.32-.625-1.25-.833.069-.625.764-.695,1.25a3.381,3.381,0,0,0-.833.069.667.667,0,0,0-.486.625C32.82,38.187,33.028,38.326,34.07,38.395Z" transform="translate(-8.895 -7.895)"/>
      <path id="Path_129" data-name="Path 129" d="M31.8,31.826a1.8,1.8,0,0,1,1.6-1.25c.625-.069.764-.278.764-.833v-.972a.068.068,0,0,1,.069-.069h1.25v1.111c0,.556.208.764.764.833a1.815,1.815,0,0,1,1.667,1.25C35.828,31.826,33.814,31.826,31.8,31.826Z" transform="translate(-8.987 -5.91)"/>
      <path id="Path_130" data-name="Path 130" d="M31.5,44.4h6.459v.625a.656.656,0,0,1-.695.695h-5.07a.656.656,0,0,1-.695-.695Z" transform="translate(-8.895 -10.705)"/>
      <path id="Path_131" data-name="Path 131" d="M33.4,26.525V25.9h3.82v.625Z" transform="translate(-9.476 -5.055)"/>
    </g>
  </g>
</svg>
